<svg width="1116" height="127" viewBox="0 0 1116 127" fill="none" xmlns="http://www.w3.org/2000/svg">
<path d="M2.08002 50.096C2.08002 34.864 5.72002 23.048 13 14.648C20.28 6.24797 30.416 2.04797 43.408 2.04797C56.4 2.04797 66.536 6.24797 73.816 14.648C81.096 23.048 84.736 34.864 84.736 50.096V76.304C84.736 91.984 81.096 103.912 73.816 112.088C66.536 120.264 56.4 124.352 43.408 124.352C30.416 124.352 20.28 120.264 13 112.088C5.72002 103.912 2.08002 91.984 2.08002 76.304V50.096ZM43.408 111.248C52.48 111.248 59.256 108.168 63.736 102.008C68.328 95.736 70.624 86.832 70.624 75.296V51.104C70.624 40.352 68.328 31.672 63.736 25.064C59.256 18.456 52.48 15.152 43.408 15.152C34.336 15.152 27.504 18.456 22.912 25.064C18.432 31.672 16.192 40.352 16.192 51.104V75.296C16.192 86.832 18.432 95.736 22.912 102.008C27.504 108.168 34.336 111.248 43.408 111.248Z" stroke="#ECE0F5" stroke-width="4"/>
<path d="M104.947 4.39998H187.603V17.504H153.331V122H139.219V17.504H104.947V4.39998Z" stroke="#ECE0F5" stroke-width="4"/>
<path d="M207.814 4.39998H290.47V17.504H256.198V122H242.086V17.504H207.814V4.39998Z" stroke="#ECE0F5" stroke-width="4"/>
<path d="M310.682 50.096C310.682 34.864 314.322 23.048 321.602 14.648C328.882 6.24797 339.018 2.04797 352.01 2.04797C365.002 2.04797 375.138 6.24797 382.418 14.648C389.698 23.048 393.338 34.864 393.338 50.096V76.304C393.338 91.984 389.698 103.912 382.418 112.088C375.138 120.264 365.002 124.352 352.01 124.352C339.018 124.352 328.882 120.264 321.602 112.088C314.322 103.912 310.682 91.984 310.682 76.304V50.096ZM352.01 111.248C361.082 111.248 367.858 108.168 372.338 102.008C376.93 95.736 379.226 86.832 379.226 75.296V51.104C379.226 40.352 376.93 31.672 372.338 25.064C367.858 18.456 361.082 15.152 352.01 15.152C342.938 15.152 336.106 18.456 331.514 25.064C327.034 31.672 324.794 40.352 324.794 51.104V75.296C324.794 86.832 327.034 95.736 331.514 102.008C336.106 108.168 342.938 111.248 352.01 111.248Z" stroke="#ECE0F5" stroke-width="4"/>
<path d="M522.128 4.39998H593.36V17.504H536.24V56.48H592.352V69.584H536.24V108.896H594.368V122H522.128V4.39998Z" stroke="#ECE0F5" stroke-width="4"/>
<path d="M638.267 122H624.155V4.39998H638.267V56.48H642.131L687.323 4.39998H704.795V5.40798L656.075 62.192V64.208L706.811 120.992V122H689.003L642.131 69.584H638.267V122Z" stroke="#ECE0F5" stroke-width="4"/>
<path d="M726.686 4.39998H740.798V108.896H802.286V122H726.686V4.39998Z" stroke="#ECE0F5" stroke-width="4"/>
<path d="M840.138 4.39998V82.352C840.138 91.872 842.322 99.096 846.69 104.024C851.17 108.84 857.722 111.248 866.346 111.248C874.97 111.248 881.465 108.84 885.833 104.024C890.313 99.096 892.554 91.872 892.554 82.352V4.39998H906.666V82.352C906.666 96.016 903.082 106.432 895.914 113.6C888.746 120.768 878.89 124.352 866.346 124.352C853.802 124.352 843.946 120.768 836.778 113.6C829.61 106.432 826.026 96.016 826.026 82.352V4.39998H840.138Z" stroke="#ECE0F5" stroke-width="4"/>
<path d="M992.229 115.952H994.245V4.39998H1008.36V122H980.133L946.197 10.448H944.181V122H930.069V4.39998H958.293L992.229 115.952Z" stroke="#ECE0F5" stroke-width="4"/>
<path d="M1032.94 4.39998H1071.58C1086.14 4.39998 1096.78 7.87197 1103.5 14.816C1110.22 21.76 1113.58 32.848 1113.58 48.08V78.32C1113.58 93.552 1110.22 104.64 1103.5 111.584C1096.78 118.528 1086.14 122 1071.58 122H1032.94V108.728H1043.02V17.504H1032.94V4.39998ZM1069.56 108.896C1074.71 108.896 1079.14 108.392 1082.83 107.384C1086.64 106.376 1089.78 104.696 1092.24 102.344C1094.7 99.88 1096.5 96.632 1097.62 92.6C1098.85 88.568 1099.46 83.472 1099.46 77.312V49.088C1099.46 42.928 1098.85 37.832 1097.62 33.8C1096.5 29.768 1094.7 26.576 1092.24 24.224C1089.78 21.76 1086.64 20.024 1082.83 19.016C1079.14 18.008 1074.71 17.504 1069.56 17.504H1057.13V108.896H1069.56Z" stroke="#ECE0F5" stroke-width="4"/>
</svg>
